# xmcd CD database file
#
# Track frame offsets:
#	150
#	27485
#	54915
#	84995
#	112057
#	141540
#	164487
#	200677
#	238145
#	259780
#	274860
#	296400
#	301687
#	303480
#	306342
#	310350
#
# Disc length: 4208 seconds
#
# Revision: 1
# Processed by: cddbd v1.5.2PL0 Copyright (c) Steve Scherf et al.
# Submitted via: CDex 1.70beta2
#
DISCID=ee106e10
DTITLE=世界宗教音楽ライブラリー - コーラン朗唱
DYEAR=2001
DGENRE=World
TTITLE0=第3章 イムラーン家章(アーリ・イムラーン)
TTITLE1=第2章 雌牛章(アル・バカラ)
TTITLE2=第7章 高壁章(アル・アアラーフ)
TTITLE3=第8章 戦利品章(アル・アンファール)
TTITLE4=第21章 預言者章(アル・アンビヤーゥ)
TTITLE5=第9章 悔悟章(アッ・タウバ)
TTITLE6=第12章 ユースフ章(ユースフ)
TTITLE7=第20章 ター・ハー章(ター・ハー)
TTITLE8=第84章 曉章(アル・ファジュル)
TTITLE9=第82章 裂ける章(アル・インフィタール)
TTITLE10=第36章 ヤー・スィーン章(ヤー・スィーン)
TTITLE11=第97章 みいつ章(アル・カドル)
TTITLE12=第112章 純正章(アル・イフラース)
TTITLE13=第113章 黎明章(アル・ファラク)
TTITLE14=第114章 人々章(アン・ナース)
TTITLE15=第1章 開端章(アル・ファーティハ)
EXTD=YEAR: 2001
EXTT0=
EXTT1=
EXTT2=
EXTT3=
EXTT4=
EXTT5=
EXTT6=
EXTT7=
EXTT8=
EXTT9=
EXTT10=
EXTT11=
EXTT12=
EXTT13=
EXTT14=
EXTT15=
PLAYORDER=
